<?xml version="1.0" encoding="utf-8"?><svg xml:space="preserve" viewBox="0 0 100 100" y="0" x="0" xmlns="http://www.w3.org/2000/svg" id="圖層_1" version="1.1" width="200px" height="200px" xmlns:xlink="http://www.w3.org/1999/xlink" style="width:100%;height:100%;background-size:initial;background-repeat-y:initial;background-repeat-x:initial;background-position-y:initial;background-position-x:initial;background-origin:initial;background-color:initial;background-clip:initial;background-attachment:initial;animation-play-state:paused" ><g class="ldl-scale" style="transform-origin:50% 50%;transform:rotate(0deg) scale(0.8, 0.8);animation-play-state:paused" ><path fill="#39b54a" d="M70.432 18.982c-2.949-.357-5.982-.675-8.919-.407a20.65 20.65 0 0 1 1.35-.951c2.156-1.38 4.405-2.706 6.78-2.794-1.314-1.471-3.088-1.817-4.766-2.098-2.347-.393-4.768-.747-7.087-.312a15.146 15.146 0 0 1 1.96-2.008c1.617-1.38 3.304-2.706 5.085-2.794-.986-1.473-2.316-1.818-3.575-2.1-2.41-.538-4.928-1.02-7.206.527-1.666 1.131-3.146 3.697-3.665 6.721-.553-2.924-1.999-5.39-3.623-6.492-2.279-1.546-4.796-1.065-7.206-.527-1.259.281-2.589.626-3.574 2.098 1.781.088 3.468 1.415 5.085 2.794a15.207 15.207 0 0 1 1.96 2.008c-2.319-.435-4.741-.081-7.087.312-1.678.281-3.452.626-4.766 2.098 2.374.088 4.624 1.415 6.78 2.794.441.282.896.606 1.35.951-2.937-.267-5.97.05-8.919.407-2.322.281-4.777.626-6.595 2.098 3.286.088 6.399 1.415 9.383 2.794 3.365 1.556 7.327 4.033 8.308 7.773 3.088-.449 6.177-1.278 9.237-1.947.005-.029.005-.057.009-.086 2.855.641 5.731 1.385 8.608 1.804.981-3.74 4.942-6.217 8.308-7.773 2.983-1.38 6.097-2.706 9.383-2.794-1.821-1.47-4.276-1.815-6.598-2.096z" style="fill:rgb(57, 181, 74);animation-play-state:paused" ></path>
<path fill="#fbb03b" d="M66.157 33.725C61.576 29.841 56.074 27.559 50 27.559c-17.172 0-29.811 18.178-29.811 39.51 0 6.939 1.344 12.31 3.739 16.411C28.898 91.988 38.414 95 50 95c17.172 0 29.811-6.598 29.811-27.93.001-13.788-5.284-26.249-13.654-33.345z" style="fill:rgb(251, 176, 59);animation-play-state:paused" ></path>
<path opacity=".2" d="M66.157 33.725c5.014 7.146 7.988 16.736 7.988 27.073 0 21.333-12.639 27.93-29.811 27.93-8.091 0-15.175-1.467-20.405-5.248C28.898 91.988 38.414 95 50 95c17.172 0 29.811-6.598 29.811-27.93.001-13.788-5.284-26.249-13.654-33.345z" style="animation-play-state:paused" ></path>
<path stroke-miterlimit="10" stroke-linecap="round" stroke-width="3" stroke="#cc8f30" fill="none" d="M28.26 70.49c1.448 2.323 3.448 3.76 5.657 3.76 1.608 0 3.103-.763 4.356-2.073.841-.879 1.899-.879 2.74 0 1.253 1.31 2.748 2.073 4.356 2.073 1.598 0 3.086-.752 4.335-2.047.792-.821 1.805-.821 2.598 0 1.249 1.295 2.737 2.047 4.335 2.047 2.101 0 4.012-1.299 5.439-3.423" style="stroke:rgb(204, 143, 48);animation-play-state:paused" ></path>
<path stroke-miterlimit="10" stroke-linecap="round" stroke="#cc8f30" fill="none" stroke-width="2.899" d="M29.26 58.61c1.352 2.323 3.219 3.76 5.282 3.76 1.501 0 2.897-.763 4.067-2.073.785-.879 1.773-.879 2.558 0 1.17 1.31 2.566 2.073 4.067 2.073 1.492 0 2.881-.752 4.047-2.047.74-.821 1.686-.821 2.425 0 1.166 1.295 2.555 2.047 4.047 2.047 1.961 0 3.746-1.299 5.079-3.423" style="stroke:rgb(204, 143, 48);animation-play-state:paused" ></path>
<metadata xmlns:d="https://loading.io/stock/" style="animation-play-state:paused" ><d:name style="animation-play-state:paused" >pineapple</d:name>


<d:tags style="animation-play-state:paused" >pineapple,fruit</d:tags>


<d:license style="animation-play-state:paused" >by</d:license>


<d:slug style="animation-play-state:paused" >56vls8</d:slug></metadata></g><!-- generated by https://loading.io/ --></svg>
